# xmcd
# 
# Track frame offsets:
#     150
#     14956
#     34100
#     50298
#     64055
#     78328
#     92039
#     100879
#     114005
#     125654
#     145589
#     157033
#     171263
#     182612
#     195037
#     204338
#     216884
#     238549
#     258907
#     270154
#     292885
#     308470
#     322292
#     339058
# 
# Disc length: 4714
# 
# Revision: 1
# Processed by: cddbd v1.5.2PL0 Copyright (c) Steve Scherf et al.
# Submitted via: fre:ac v1.0.17
# 
DISCID=41126818
DTITLE=The Oxford American - Southern Music CD [CD2 of 2)
DYEAR=2013
DGENRE=Blues
TTITLE0=Roseanne Cash - The Long Way Home
TTITLE1=Dolly Parton - Travelin' Prayer
TTITLE2=Brandy Clark - Crazy Women
TTITLE3=Carl Perkins - Tennessee
TTITLE4=The Nitty Gritty Dirt Band - Grand Old Opry Song
TTITLE5=Otis Redding and Carla Thomas - Tramp
TTITLE6=Chet Atkins - Chinatown, My Chinatown
TTITLE7=Rosco Gordon - Shoobie Oobie
TTITLE8=Motel Mirrors - Suddenly You
TTITLE9=The Bo-Keys - Deuce And A Quarter
TTITLE10=The Grifters - Last Man Alive
TTITLE11=Van Duren - Chemical Fire
TTITLE12=George Cartwright - He Who'd Ask
TTITLE13=Big Starr - September Gurls
TTITLE14=Billy Lee Riley - Flyn' Saucers Rock and Roll
TTITLE15=O.V. Wright - He's My Son (Just The Same)
TTITLE16=Mike Farris - Mercy Now
TTITLE17=Issac Hayes - Walk On By
TTITLE18=B. B. King - B.B. Blues
TTITLE19=Tommy Hoehn - Blue Frignt
TTITLE20=Ashley Cleveland - Rock In A Weary Land
TTITLE21=Mark Marchetti - Face Of Jesus
TTITLE22=Al Green - Have You Been Making Out O.K.
TTITLE23=Kris Kristofferson - Please Don't Tell Me How The Story Ends
EXTD=
EXTT0=
EXTT1=
EXTT2=
EXTT3=
EXTT4=
EXTT5=
EXTT6=
EXTT7=
EXTT8=
EXTT9=
EXTT10=
EXTT11=
EXTT12=
EXTT13=
EXTT14=
EXTT15=
EXTT16=
EXTT17=
EXTT18=
EXTT19=
EXTT20=
EXTT21=
EXTT22=
EXTT23=
PLAYORDER=
